<?xml version="1.0" encoding="utf-8"?>
<!-- Generator: Adobe Illustrator 16.0.0, SVG Export Plug-In . SVG Version: 6.00 Build 0)  -->
<!DOCTYPE svg PUBLIC "-//W3C//DTD SVG 1.1//EN" "http://www.w3.org/Graphics/SVG/1.1/DTD/svg11.dtd">
<svg version="1.1" id="Layer_1" xmlns="http://www.w3.org/2000/svg" xmlns:xlink="http://www.w3.org/1999/xlink" x="0px" y="0px"
	 width="300px" height="300px" viewBox="0 0 300 300" enable-background="new 0 0 300 300" xml:space="preserve">
<circle fill="#7AD1EA" cx="150" cy="150" r="149.999"/>
<g>
	<path fill="#5B8F3F" d="M138.384,165.295c0,0,1.613-4.84,8.599-1.399c0,0,6.667-0.215,5.376-5.59c0,0,3.976-8.272-2.473-8.168
		c0,0,3.44-10.86-5.698-8.923c0,0-0.322-11.072-10.857-7.74c0,0-2.902-13.868-15.695-8.278c0,0-11.823-2.792-14.081,4.624
		c0,0-15.587-10.318-21.717,4.193c0,0-8.277-3.122-9.566,5.052c0,0-10.75,3.008-9.782,14.616c0,0-10.642,0.755-7.524,9.675
		c0,0-7.096,10.32,4.729,15.694l4.192,1.343c0,0-8.062,4.353-2.259,12.738c0,0,1.291,2.583,4.032,2.742
		c0,0,0.808,11.772,16.609,7.095c0,0,18.382,7.258,18.059-13.222c0,0,10.201-2.735,6.955-10.395l30.54-13.947"/>
	<path fill="#385729" d="M121.168,158.466c-0.246-2.529-0.036-5.131,0.71-7.76c0.667-2.351,3.635-6.2,2.331-8.725
		c-1.351-2.614-2.025,0.984-2.904,1.934c-2.087,2.258-4.159,13.739-4.475,16.754c-0.175,1.647-1.472,5.632-4.189,5.486
		c-1.165-0.063-5.014-5.252-5.489-5.854c-1.961-2.473-1.329-8.123-0.725-10.954c0.938-4.396,5.79-5.952,7.949-9.544
		c-1.847-1.014-4.702,1.324-6.181,2.303c-4.012,2.659-5.742,10.66-5.032,15.172c-0.462-2.939-4.309-15.108-5.91-17.604
		c-1.818-2.836-1.689,0.835-1.657,2.344c0.09,4.347,1.569,8.206,2.394,12.378c-0.362-1.835-5.784-3.742-7.201-4.496
		c-2.921-1.549-5.922-3.016-9.211-3.58c-3.406-0.587-1.98,1.344-0.338,2.801c2.278,2.017,4.941,3.555,7.366,5.381
		c1.386,1.045,2.767,2.114,4.015,3.325c0.729,0.713,1.417,1.726,1.972,2.524c-4.886-0.447-10.515,0.183-14.258,3.651
		c-0.506,0.472-2.173,2.082-1.878,2.869c0.46,1.226,2.889-0.141,3.667-0.476c2.957-1.259,5.181-2.3,9.185-1.866
		c3.601,0.387,7.246,1.615,10.119,3.333c1.583,0.947,4.537,2.921,4.37,4.383c-0.189,1.636-3.475,1.257-5.398,1.272
		c-3.049,0.021-5.682,0.328-8.132,1.339c-1.138,0.469-4.562,1.793-4.218,2.993c0.722,2.52,7.289,0.203,8.971-0.008
		c4.088-0.518,7.378,0.115,10.334,1.383c1.322,0.567,2.576,1.261,3.806,2.037l16.847-8.397
		C124.215,168.747,121.683,163.778,121.168,158.466z"/>
	<path fill="#70AE43" d="M133.555,171.544c1.256,2.709,3.48,5.142,5.829,7.711c4.835,5.287,9.922,10.112,16.064,13.884
		c3.316,2.034,7.098,3.984,10.008,6.593c0.904,0.809,6.621,6.05,6.009,7.038c-0.471,0.757-3.75,1.354-4.52,1.58
		c-2.912,0.841-5.94,1.237-8.834,2.14c-4.109,1.275-7.936,4.922-12.333,2.543c-3.396-1.838-4.753-6.103-7.152-9.023
		c-4.287-5.215-10.35-9.661-15.718-13.725c-5.546-4.202-12.429-7.58-19.499-7.718c-5.519-0.115-11.062,0.551-16.504,1.403
		l-5.413,1.175c0,0-5.412,0.238,0-3.176c0,0,4.59-6.234,20.356-5.292c0.714,0.039,4.204-0.5,4.31-1.473
		c0.107-1.017-3.604-2.803-4.332-3.238c-2.257-1.364-4.809-2.445-7.481-2.466c-4.371-0.04-8.183,2.977-11.898,4.9
		c-0.517,0.27-2.666,2.104-3.145,1.711c-0.813-0.67,2.541-4.528,2.929-5.048c1.443-1.938,3.277-3.641,5.352-4.883
		c1.599-0.956,4.534-2.468,6.5-1.98c-2.169-0.539-4.338-1.075-6.506-1.614c-1.448-0.358-2.893-0.769-4.359-1.024
		c-1.037-0.188-2.986-0.176-3.463-1.366c-0.64-1.597,2.533-1.57,3.437-1.629c3.914-0.261,8.26,1.38,12.068,2.222l6.943,1.765
		c-3.28-4.57-7.502-9.152-9.131-14.613c-0.291-0.971-0.72-1.839-0.192-2.801c1.076-1.955,2.771,0.853,3.575,1.72
		c1.154,1.243,2.271,2.517,3.438,3.753c2.488,2.636,5.023,5.322,7.8,7.661c0.299,0.255,2.571,1.495,2.632,1.692
		c0,0-0.47-1.528,1.648-6.938c0.535-1.369,2.032-2.799,3.056-3.784c1.021-0.975,2.19-1.803,3.47-2.409
		c0.646-0.306,2.966-1.416,3.677-1.044c0.79,0.415-1.278,2.705-1.729,3.224c-2.184,2.532-3.947,4.437-4.026,7.946
		c-0.071,3.161,0.979,6.389,2.818,8.965c1.014,1.418,3.184,4.073,5.178,3.981c2.23-0.098,2.263-2.98,2.598-4.659
		c0.533-2.662,1.38-4.945,3.146-7.05c0.82-0.973,3.164-3.911,4.723-3.564c3.271,0.729-0.928,6.372-1.489,7.835
		C132.028,166.017,132.336,168.914,133.555,171.544z"/>
	<path fill="#5B8F3F" d="M171.465,207.131c0,0-6.329,10.701-16.008,8.481c0,0-8.753,0.713-11.975-4.087
		c0,0,0.018-10.19,11.743-6.502C155.225,205.023,171.47,203.355,171.465,207.131z"/>
</g>
<g>
	<path fill="#5B8F3F" d="M181.002,138.493c0,0-1.542-4.578-8.155-1.299c0,0-6.317-0.187-5.11-5.283c0,0-3.792-7.832,2.321-7.748
		c0,0-3.288-10.282,5.375-8.473c0,0,0.275-10.494,10.269-7.363c0,0,2.71-13.15,14.85-7.89c0,0,11.197-2.68,13.358,4.343
		c0,0,14.742-9.825,20.59,3.91c0,0,7.835-2.978,9.08,4.764c0,0,10.195,2.822,9.312,13.827c0,0,10.086,0.687,7.158,9.148
		c0,0,6.755,9.758-4.439,14.887l-3.967,1.282c0,0,7.651,4.104,2.176,12.067c0,0-1.215,2.444-3.814,2.606
		c0,0-0.729,11.156-15.719,6.771c0,0-17.399,6.929-17.15-12.482c0,0-9.676-2.56-6.621-9.832l-28.979-13.128"/>
	<path fill="#385729" d="M189.787,135.384c0.236-2.53,0.018-5.13-0.732-7.761c-0.675-2.344-3.653-6.185-2.359-8.713
		c1.345-2.62,2.03,0.976,2.909,1.922c2.094,2.252,4.197,13.728,4.526,16.74c0.18,1.65,1.487,5.628,4.203,5.474
		c1.166-0.063,4.996-5.263,5.474-5.869c1.953-2.475,1.307-8.125,0.691-10.956c-0.949-4.395-5.807-5.937-7.978-9.518
		c1.846-1.017,4.707,1.309,6.189,2.283c4.021,2.647,5.772,10.646,5.076,15.155c0.453-2.941,4.264-15.118,5.856-17.622
		c1.811-2.839,1.692,0.832,1.662,2.34c-0.076,4.344-1.543,8.211-2.357,12.382c0.357-1.831,5.772-3.757,7.189-4.514
		c2.918-1.56,5.913-3.035,9.201-3.608c3.406-0.593,1.982,1.338,0.348,2.802c-2.273,2.024-4.932,3.57-7.351,5.401
		c-1.387,1.049-2.76,2.121-4.005,3.34c-0.729,0.712-1.412,1.724-1.966,2.529c4.888-0.464,10.518,0.149,14.27,3.612
		c0.509,0.464,2.18,2.075,1.888,2.855c-0.459,1.23-2.891-0.133-3.672-0.464c-2.956-1.248-5.188-2.28-9.189-1.837
		c-3.6,0.396-7.243,1.636-10.108,3.362c-1.58,0.952-4.529,2.935-4.354,4.396c0.191,1.633,3.478,1.246,5.399,1.251
		c3.049,0.014,5.684,0.315,8.136,1.321c1.141,0.464,4.568,1.776,4.229,2.981c-0.718,2.524-7.29,0.223-8.975,0.019
		c-4.091-0.502-7.377,0.139-10.327,1.413c-1.318,0.572-2.572,1.271-3.8,2.046l-16.872-8.345
		C186.768,145.676,189.285,140.702,189.787,135.384z"/>
	<path fill="#70AE43" d="M184.894,146.915c-1.248,2.72-3.464,5.154-5.811,7.732c-4.816,5.302-9.888,10.142-16.021,13.929
		c-3.309,2.046-7.085,4.008-9.984,6.626c-0.904,0.811-6.605,6.067-5.989,7.052c0.471,0.758,3.752,1.346,4.523,1.566
		c2.913,0.834,5.945,1.223,8.84,2.116c4.111,1.263,7.948,4.9,12.341,2.508c3.392-1.85,4.735-6.12,7.122-9.042
		c4.274-5.231,10.325-9.691,15.683-13.774c5.533-4.217,12.406-7.612,19.475-7.779c5.519-0.126,11.062,0.521,16.505,1.359
		l5.417,1.163c0,0,5.413,0.218-0.012-3.176c0,0-4.607-6.226-20.371-5.238c-0.713,0.047-4.205-0.485-4.312-1.455
		c-0.111-1.02,3.597-2.814,4.319-3.254c2.255-1.367,4.801-2.455,7.478-2.489c4.369-0.053,8.192,2.953,11.911,4.869
		c0.518,0.269,2.673,2.095,3.151,1.701c0.812-0.67-2.555-4.519-2.945-5.039c-1.447-1.931-3.283-3.629-5.364-4.865
		c-1.602-0.953-4.541-2.457-6.507-1.961c2.168-0.545,4.334-1.092,6.501-1.636c1.445-0.359,2.891-0.775,4.356-1.036
		c1.037-0.188,2.986-0.182,3.459-1.375c0.636-1.601-2.537-1.563-3.44-1.622c-3.915-0.245-8.254,1.404-12.062,2.258l-6.938,1.784
		c3.268-4.58,7.474-9.175,9.089-14.645c0.287-0.968,0.715-1.837,0.184-2.799c-1.081-1.955-2.765,0.865-3.568,1.73
		c-1.15,1.248-2.263,2.527-3.424,3.764c-2.482,2.645-5.01,5.335-7.779,7.687c-0.297,0.25-2.566,1.501-2.627,1.699
		c0,0,0.467-1.533-1.668-6.934c-0.537-1.365-2.039-2.794-3.067-3.771c-1.024-0.978-2.195-1.802-3.478-2.4
		c-0.646-0.305-2.968-1.41-3.676-1.035c-0.792,0.416,1.284,2.703,1.734,3.219c2.191,2.528,3.959,4.42,4.051,7.935
		c0.081,3.158-0.959,6.389-2.792,8.972c-1.011,1.421-3.173,4.085-5.167,4c-2.229-0.097-2.27-2.98-2.612-4.656
		c-0.539-2.659-1.396-4.944-3.166-7.04c-0.821-0.969-3.175-3.901-4.734-3.551c-3.269,0.74,0.945,6.369,1.512,7.831
		C186.406,141.385,186.105,144.285,184.894,146.915z"/>
</g>
</svg>
