<?xml version="1.0" encoding="utf-8"?>
<!-- Generator: Adobe Illustrator 16.0.0, SVG Export Plug-In . SVG Version: 6.00 Build 0)  -->
<!DOCTYPE svg PUBLIC "-//W3C//DTD SVG 1.1//EN" "http://www.w3.org/Graphics/SVG/1.1/DTD/svg11.dtd">
<svg version="1.1" id="Layer_1" xmlns="http://www.w3.org/2000/svg" xmlns:xlink="http://www.w3.org/1999/xlink" x="0px" y="0px"
	 width="500px" height="200px" viewBox="0 0 500 200" enable-background="new 0 0 500 200" xml:space="preserve">
<g>
	<path fill="none" stroke="#FFFFFF" stroke-width="4" stroke-miterlimit="10" d="M19.276,196.059v-36.471c0-5.5,4.5-10,10-10h80
		c5.5,0,10,4.5,10,10v36.471"/>
</g>
<path fill="#FFFFFF" stroke="#FFFFFF" stroke-miterlimit="10" d="M93.443,136.061v2.352h2.354v44.58c0,3.535,3.072,6.4,6.862,6.4
	s6.863-2.865,6.863-6.4v-44.58h2.353v-2.352H93.443z"/>
<path fill="#FFFFFF" stroke="#FFFFFF" stroke-miterlimit="10" d="M75.012,155.66v-17.248h2.354v-2.352H58.934v2.352h2.354v17.248
	c-6.503,2.695-11.079,9.1-11.079,16.576c0,9.906,8.032,17.939,17.941,17.939c9.908,0,17.94-8.033,17.94-17.939
	C86.09,164.76,81.514,158.355,75.012,155.66z"/>
<path fill="#83C454" d="M53.148,172.769c0.299,8.034,6.891,14.463,15.001,14.463s14.701-6.429,14.999-14.463H53.148z"/>
<line fill="none" stroke="#FFFFFF" stroke-width="4" stroke-miterlimit="10" x1="45.6" y1="149.588" x2="45.6" y2="196.059"/>
<path fill="#FFFFFF" stroke="#FFFFFF" stroke-miterlimit="10" d="M24.815,136.061v2.352h2.354v44.58c0,3.535,3.073,6.4,6.862,6.4
	c3.79,0,6.863-2.865,6.863-6.4v-44.58h2.353v-2.352H24.815z"/>
<line fill="none" stroke="#FFFFFF" stroke-width="4" stroke-miterlimit="10" x1="90.306" y1="149.588" x2="90.306" y2="196.059"/>
<g>
	<path fill="none" stroke="#FFFFFF" stroke-width="4" stroke-miterlimit="10" d="M166.89,99.949V62.574c0-5.5,4.5-10,10-10h137.438
		c5.5,0,10,4.5,10,10v14c0,5.5-4.153,11.731-9.23,13.848l-13.622,5.68c-5.077,2.116-9.23,8.348-9.23,13.848v52.625"/>
</g>
<line fill="none" stroke="#FFFFFF" stroke-width="4" stroke-miterlimit="10" x1="220.64" y1="162.574" x2="220.64" y2="52.574"/>
<g>
	<path fill="#FFFFFF" stroke="#FFFFFF" stroke-miterlimit="10" d="M279.402,119.621v3.277h3.279v62.117
		c0,4.928,4.281,8.92,9.562,8.92s9.562-3.992,9.562-8.92v-62.117h3.278v-3.277H279.402z"/>
</g>
<polyline fill="none" stroke="#FFFFFF" stroke-width="4" stroke-miterlimit="10" points="166.89,195.574 166.89,118.566 
	193.827,195.027 "/>
<g>
	<g>
		<path fill="#FFFFFF" d="M256.162,186.263c2.006,5.121-0.853,9.312-6.353,9.312h-58.34c-5.5,0-8.359-4.19-6.353-9.312
			l31.876-81.377c2.006-5.121,5.288-5.121,7.294,0L256.162,186.263z"/>
		<path fill="none" stroke="#FFFFFF" stroke-miterlimit="10" d="M256.162,186.263c2.006,5.121-0.853,9.312-6.353,9.312h-58.34
			c-5.5,0-8.359-4.19-6.353-9.312l31.876-81.377c2.006-5.121,5.288-5.121,7.294,0L256.162,186.263z"/>
	</g>
	<polygon fill="#FFFFFF" stroke="#FFFFFF" stroke-miterlimit="10" points="237.644,101.072 203.636,101.072 203.636,104.652 
		207.887,104.652 207.887,136.061 233.393,136.061 233.393,104.652 237.644,104.652 	"/>
</g>
<line fill="none" stroke="#FFFFFF" stroke-width="4" stroke-miterlimit="10" x1="165.91" y1="118.84" x2="138.973" y2="195.301"/>
<g>
	<g>
		<path fill="#FFFFFF" d="M187.43,121.513c2.006,5.121-0.853,9.312-6.353,9.312h-28.375c-5.5,0-8.359-4.19-6.353-9.312
			l16.894-43.128c2.006-5.121,5.288-5.121,7.294,0L187.43,121.513z"/>
		<path fill="none" stroke="#FFFFFF" stroke-miterlimit="10" d="M187.43,121.513c2.006,5.121-0.853,9.312-6.353,9.312h-28.375
			c-5.5,0-8.359-4.19-6.353-9.312l16.894-43.128c2.006-5.121,5.288-5.121,7.294,0L187.43,121.513z"/>
	</g>
	<polygon fill="#FFFFFF" stroke="#FFFFFF" stroke-miterlimit="10" points="177.39,72.468 156.39,72.468 156.39,74.679 
		159.015,74.679 159.015,94.074 174.765,94.074 174.765,74.679 177.39,74.679 	"/>
</g>
<g>
	<path fill="none" stroke="#FFFFFF" stroke-width="4" stroke-miterlimit="10" d="M330.724,196.777v-59.705c0-5.5,4.5-10,10-10h130
		c5.5,0,10,4.5,10,10v59.705"/>
</g>
<line fill="none" stroke="#FFFFFF" stroke-width="4" stroke-miterlimit="10" x1="405.724" y1="127.721" x2="405.724" y2="197.426"/>
<g>
	<path fill="none" stroke="#FFFFFF" stroke-width="4" stroke-miterlimit="10" d="M368.269,121.074v-34
		c0-5.5,4.365-8.909,9.701-7.575l54.599,13.65c5.336,1.334,9.701,6.925,9.701,12.425v15.5"/>
</g>
<path fill="#FFFFFF" stroke="#FFFFFF" stroke-miterlimit="10" d="M452.563,134.412v-25.863h3.529v-3.531h-27.646v3.531h3.529v25.863
	c-9.755,4.043-16.618,13.654-16.618,24.869c0,14.863,12.048,26.91,26.912,26.91s26.911-12.047,26.911-26.91
	C469.181,148.066,462.318,138.455,452.563,134.412z"/>
<path fill="#FFFFFF" stroke="#FFFFFF" stroke-miterlimit="10" d="M378.562,135v-25.865h3.529v-3.531h-27.646v3.531h3.529v25.863
	c-9.755,4.043-16.618,13.654-16.618,24.869c0,14.863,12.048,26.912,26.912,26.912s26.911-12.049,26.911-26.912
	C395.18,148.652,388.317,139.041,378.562,135z"/>
<path fill="#F5EB17" d="M30.031,161.604v21.062c0,2.061,1.792,3.731,4,3.731s4-1.671,4-3.731v-21.062H30.031z"/>
<path fill="#10BAD6" d="M98.659,167.195v15.47c0,2.062,1.792,3.731,4,3.731s4-1.67,4-3.731v-15.47H98.659z"/>
<g>
	<path fill="#EF4153" d="M184.609,122.572c-2.497-6.263-8.51-21.353-8.51-21.353h-9.21h-9.21c0,0-6.013,15.09-8.51,21.353
		c-1.166,2.926,1.543,5.011,3.792,5.157h13.928h13.929C183.066,127.583,185.775,125.498,184.609,122.572z"/>
</g>
<path fill="#F5EB17" d="M285.994,153.817v30.682c0,3.22,2.799,5.83,6.25,5.83s6.25-2.61,6.25-5.83v-30.682H285.994z"/>
<path fill="#EF4153" d="M348.034,147.778c-2.071,3.501-3.267,7.583-3.267,11.944c0,12.978,10.521,23.499,23.501,23.499
	s23.499-10.521,23.499-23.499c0-4.361-1.194-8.443-3.266-11.944H348.034z"/>
<path fill="#10BAD6" d="M418.769,159.726c0,12.977,10.521,23.496,23.5,23.496s23.499-10.52,23.5-23.496H418.769z"/>
<path fill="#83C454" d="M251.134,183.185c-4.296-10.777-14.643-36.742-14.643-36.742h-15.847h-0.005h-0.005h-15.847
	c0,0-10.346,25.965-14.643,36.742c-2.006,5.034-3.812,8.873,6.524,8.873h23.965h0.005h0.005h23.965
	C254.946,192.058,253.14,188.219,251.134,183.185z"/>
</svg>
