<?xml version="1.0" encoding="utf-8"?>
<!-- Generator: Adobe Illustrator 16.0.0, SVG Export Plug-In . SVG Version: 6.00 Build 0)  -->
<!DOCTYPE svg PUBLIC "-//W3C//DTD SVG 1.1//EN" "http://www.w3.org/Graphics/SVG/1.1/DTD/svg11.dtd">
<svg version="1.1" id="Layer_1" xmlns="http://www.w3.org/2000/svg" xmlns:xlink="http://www.w3.org/1999/xlink" x="0px" y="0px"
	 width="100px" height="100px" viewBox="0 0 100 100" enable-background="new 0 0 100 100" xml:space="preserve">
<path fill="#FFFFFF" d="M63.387,61.089c-2.967-0.762-5.454-2.466-5.454-2.466c-0.368-0.209-0.053-2.099-0.053-2.099l-2.1-0.314
	c0-0.156-0.156-2.465-0.156-2.465c2.203-0.735,1.975-5.071,1.975-5.071c1.4,0.77,2.309-2.657,2.309-2.657
	c1.656-4.763-0.822-4.476-0.822-4.476c0.787-3.567,0-8.777,0-8.777c-1.102-9.65-18.069-6.609-15.525-3.567
	c-6.031-1.678-3.934,9.756-3.934,9.756l1.049,2.832c-2.063,1.328-0.629,2.938-0.56,4.791c0.103,2.734,1.784,2.168,1.784,2.168
	c0.104,4.511,2.342,5.105,2.342,5.105c0.419,2.833,0,2.588,0,2.588h-1.836c0.088,0.718-0.157,1.923-0.157,1.923
	c-2.348,1.037-2.848,1.646-5.175,2.657c-4.5,1.959-10.245,4.057-10.245,4.057c-0.745,0.191-1.34,0.475-1.828,0.8
	c6.769,4.937,15.469,7.907,24.964,7.907c9.528,0,18.256-2.993,25.036-7.961C72.993,64.034,67.868,62.238,63.387,61.089z"/>
</svg>
