<?xml version="1.0" encoding="utf-8"?>
<!-- Generator: Adobe Illustrator 16.0.0, SVG Export Plug-In . SVG Version: 6.00 Build 0)  -->
<!DOCTYPE svg PUBLIC "-//W3C//DTD SVG 1.1//EN" "http://www.w3.org/Graphics/SVG/1.1/DTD/svg11.dtd">
<svg version="1.1" id="question-layer" xmlns="http://www.w3.org/2000/svg" xmlns:xlink="http://www.w3.org/1999/xlink" x="0px"
	 y="0px" width="100px" height="100px" viewBox="0 0 100 100" enable-background="new 0 0 100 100" xml:space="preserve">
<rect id="frame_70_" fill="none" width="100" height="100"/>
<path fill="#FFFFFF" d="M43.186,63.96h10.862v10.138H43.186V63.96z M63.215,35.119c-0.489-1.419-1.3-2.724-2.412-3.877
	c-1.109-1.15-2.584-2.097-4.386-2.813c-1.786-0.709-3.997-1.069-6.567-1.069c-1.697,0-3.306,0.192-4.792,0.57
	c-1.47,0.38-2.815,0.874-3.999,1.466c-1.198,0.6-2.273,1.28-3.191,2.019c-0.923,0.744-1.71,1.481-2.305,2.219
	c-0.599,0.742-1.639,2.094-1.639,3.445c0,2.423,1.964,4.389,4.389,4.389c0.662,0,1.319-0.09,1.851-0.412
	c0.527-0.32,1.192-0.918,1.853-1.626c0.824-0.881,1.949-1.43,3.056-1.958c1.389-0.662,2.865-0.997,4.389-0.997
	c1.359,0,2.366,0.325,2.994,0.965c0.645,0.659,0.959,1.342,0.959,2.092c0,0.37-0.079,0.715-0.238,1.047
	c-0.201,0.413-0.457,0.807-0.764,1.175c-0.325,0.393-0.702,0.777-1.122,1.146c-0.457,0.403-0.903,0.788-1.35,1.157
	c-0.966,0.811-1.837,1.625-2.591,2.418c-0.79,0.83-1.47,1.727-2.023,2.668c-0.568,0.966-2.141,5.744-2.141,7.295v1.73h10.862v-1.73
	c0-0.936,0.314-3.709,0.706-4.24c0.407-0.559,0.871-1.063,1.381-1.505c0.54-0.472,1.119-0.926,1.729-1.355
	c0.697-0.504,1.404-1.063,2.1-1.663c0.738-0.637,1.402-1.354,1.979-2.136c0.594-0.805,1.077-1.737,1.434-2.77
	c0.362-1.04,0.547-2.262,0.547-3.63C63.925,37.85,63.686,36.498,63.215,35.119z"/>
</svg>
